<svg width="318" height="174" viewBox="0 0 318 174" fill="none" xmlns="http://www.w3.org/2000/svg">
<rect width="318" height="174" fill="white"/>
<path d="M159.923 43.3871V40.0909H175.453V43.3871H169.664V59H165.712V43.3871H159.923ZM177.937 59V44.8182H181.87V59H177.937ZM179.913 42.9901C179.328 42.9901 178.826 42.7962 178.408 42.4084C177.995 42.0144 177.789 41.5436 177.789 40.9957C177.789 40.4541 177.995 39.9893 178.408 39.6016C178.826 39.2076 179.328 39.0107 179.913 39.0107C180.497 39.0107 180.996 39.2076 181.408 39.6016C181.827 39.9893 182.036 40.4541 182.036 40.9957C182.036 41.5436 181.827 42.0144 181.408 42.4084C180.996 42.7962 180.497 42.9901 179.913 42.9901ZM192.564 44.8182V47.7727H184.024V44.8182H192.564ZM185.963 41.4205H189.896V54.642C189.896 55.0052 189.951 55.2884 190.062 55.4915C190.173 55.6884 190.327 55.8269 190.524 55.907C190.727 55.987 190.961 56.027 191.225 56.027C191.41 56.027 191.595 56.0116 191.779 55.9808C191.964 55.9439 192.106 55.9162 192.204 55.8977L192.823 58.8246C192.626 58.8861 192.349 58.9569 191.992 59.0369C191.635 59.1231 191.201 59.1754 190.69 59.1939C189.742 59.2308 188.911 59.1046 188.197 58.8153C187.489 58.526 186.938 58.0767 186.544 57.4673C186.15 56.858 185.956 56.0885 185.963 55.1591V41.4205ZM199.364 40.0909V59H195.431V40.0909H199.364ZM208.978 59.277C207.519 59.277 206.263 58.9815 205.211 58.3906C204.165 57.7936 203.358 56.9503 202.792 55.8608C202.226 54.7652 201.942 53.4695 201.942 51.9737C201.942 50.5149 202.226 49.2346 202.792 48.1328C203.358 47.031 204.155 46.1723 205.183 45.5568C206.217 44.9413 207.43 44.6335 208.821 44.6335C209.757 44.6335 210.628 44.7843 211.434 45.0859C212.246 45.3814 212.954 45.8277 213.558 46.4247C214.167 47.0218 214.641 47.7727 214.979 48.6776C215.318 49.5762 215.487 50.6288 215.487 51.8352V52.9155H203.512V50.478H211.785C211.785 49.9117 211.662 49.41 211.415 48.973C211.169 48.536 210.828 48.1944 210.391 47.9482C209.96 47.6958 209.458 47.5696 208.886 47.5696C208.289 47.5696 207.759 47.7081 207.298 47.9851C206.842 48.2559 206.485 48.6222 206.227 49.0838C205.968 49.5393 205.836 50.0471 205.83 50.6072V52.9247C205.83 53.6264 205.959 54.2327 206.217 54.7436C206.482 55.2545 206.854 55.6484 207.335 55.9254C207.815 56.2024 208.384 56.3409 209.043 56.3409C209.48 56.3409 209.88 56.2794 210.243 56.1562C210.606 56.0331 210.917 55.8485 211.175 55.6023C211.434 55.3561 211.631 55.0545 211.766 54.6974L215.404 54.9375C215.219 55.8116 214.841 56.5748 214.268 57.2273C213.702 57.8736 212.97 58.3783 212.071 58.7415C211.179 59.0985 210.147 59.277 208.978 59.277Z" fill="#A50034"/>
<line x1="162.5" y1="122.5" x2="162.5" y2="137.5" stroke="#5A5A5A" stroke-width="3" stroke-linecap="round"/>
<line x1="156.5" y1="122.5" x2="156.5" y2="137.5" stroke="#5A5A5A" stroke-width="3" stroke-linecap="round"/>
<path d="M65 138L57.7071 130.707C57.3166 130.317 57.3166 129.683 57.7071 129.293L65 122" stroke="#5A5A5A" stroke-width="3" stroke-linecap="round" stroke-linejoin="round"/>
<path d="M253 122L260.293 129.293C260.683 129.683 260.683 130.317 260.293 130.707L253 138" stroke="#5A5A5A" stroke-width="3" stroke-linecap="round" stroke-linejoin="round"/>
<rect x="66" y="30" width="64" height="64" rx="15" fill="#EAEAEA"/>
<path d="M163.415 85H162.307L165.511 76.2727H166.602L169.807 85H168.699L166.091 77.6534H166.023L163.415 85ZM163.824 81.5909H168.29V82.5284H163.824V81.5909ZM171.03 85V78.4545H172.001V79.4432H172.07C172.189 79.1193 172.405 78.8565 172.717 78.6548C173.03 78.4531 173.382 78.3523 173.774 78.3523C173.848 78.3523 173.94 78.3537 174.051 78.3565C174.162 78.3594 174.246 78.3636 174.303 78.3693V79.392C174.268 79.3835 174.19 79.3707 174.068 79.3537C173.949 79.3338 173.822 79.3239 173.689 79.3239C173.371 79.3239 173.087 79.3906 172.837 79.5241C172.589 79.6548 172.393 79.8366 172.249 80.0696C172.107 80.2997 172.036 80.5625 172.036 80.858V85H171.03ZM178.751 78.4545V79.3068H175.359V78.4545H178.751ZM176.348 76.8864H177.354V83.125C177.354 83.4091 177.395 83.6222 177.477 83.7642C177.563 83.9034 177.67 83.9972 177.801 84.0455C177.935 84.0909 178.075 84.1136 178.223 84.1136C178.334 84.1136 178.425 84.108 178.496 84.0966C178.567 84.0824 178.624 84.071 178.666 84.0625L178.871 84.9659C178.803 84.9915 178.707 85.017 178.585 85.0426C178.463 85.071 178.308 85.0852 178.121 85.0852C177.837 85.0852 177.558 85.0241 177.286 84.902C177.016 84.7798 176.791 84.5938 176.612 84.3438C176.436 84.0938 176.348 83.7784 176.348 83.3977V76.8864ZM180.264 85V78.4545H181.27V85H180.264ZM180.776 77.3636C180.58 77.3636 180.411 77.2969 180.268 77.1634C180.129 77.0298 180.06 76.8693 180.06 76.6818C180.06 76.4943 180.129 76.3338 180.268 76.2003C180.411 76.0668 180.58 76 180.776 76C180.972 76 181.139 76.0668 181.278 76.2003C181.42 76.3338 181.491 76.4943 181.491 76.6818C181.491 76.8693 181.42 77.0298 181.278 77.1634C181.139 77.2969 180.972 77.3636 180.776 77.3636ZM187.748 79.9205L186.845 80.1761C186.788 80.0256 186.704 79.8793 186.593 79.7372C186.485 79.5923 186.338 79.473 186.15 79.3793C185.963 79.2855 185.723 79.2386 185.43 79.2386C185.029 79.2386 184.696 79.331 184.429 79.5156C184.164 79.6974 184.032 79.929 184.032 80.2102C184.032 80.4602 184.123 80.6577 184.305 80.8026C184.487 80.9474 184.771 81.0682 185.157 81.1648L186.129 81.4034C186.714 81.5455 187.15 81.7628 187.437 82.0554C187.724 82.3452 187.868 82.7187 187.868 83.1761C187.868 83.5511 187.76 83.8864 187.544 84.1818C187.331 84.4773 187.032 84.7102 186.649 84.8807C186.265 85.0511 185.819 85.1364 185.311 85.1364C184.643 85.1364 184.091 84.9915 183.653 84.7017C183.216 84.4119 182.939 83.9886 182.822 83.4318L183.777 83.1932C183.868 83.5455 184.039 83.8097 184.292 83.9858C184.548 84.1619 184.882 84.25 185.294 84.25C185.762 84.25 186.135 84.1506 186.41 83.9517C186.689 83.75 186.828 83.5085 186.828 83.2273C186.828 83 186.748 82.8097 186.589 82.6562C186.43 82.5 186.186 82.3835 185.856 82.3068L184.765 82.0511C184.166 81.9091 183.725 81.6889 183.444 81.3906C183.166 81.0895 183.027 80.7131 183.027 80.2614C183.027 79.892 183.13 79.5653 183.338 79.2812C183.548 78.9972 183.833 78.7741 184.194 78.6122C184.558 78.4503 184.97 78.3693 185.43 78.3693C186.078 78.3693 186.586 78.5114 186.956 78.7955C187.328 79.0795 187.592 79.4545 187.748 79.9205ZM192.228 78.4545V79.3068H188.836V78.4545H192.228ZM189.825 76.8864H190.83V83.125C190.83 83.4091 190.871 83.6222 190.954 83.7642C191.039 83.9034 191.147 83.9972 191.278 84.0455C191.411 84.0909 191.552 84.1136 191.7 84.1136C191.81 84.1136 191.901 84.108 191.972 84.0966C192.043 84.0824 192.1 84.071 192.143 84.0625L192.347 84.9659C192.279 84.9915 192.184 85.017 192.062 85.0426C191.94 85.071 191.785 85.0852 191.597 85.0852C191.313 85.0852 191.035 85.0241 190.762 84.902C190.492 84.7798 190.268 84.5938 190.089 84.3438C189.913 84.0938 189.825 83.7784 189.825 83.3977V76.8864Z" fill="#5A5A5A"/>
<circle cx="290.896" cy="21.5625" r="1.1875" fill="#5A5A5A" stroke="#5A5A5A" stroke-width="1.5"/>
<path d="M292.083 27.5C292.083 28.1558 291.551 28.6875 290.896 28.6875C290.24 28.6875 289.708 28.1558 289.708 27.5C289.708 26.8442 290.24 26.3125 290.896 26.3125C291.551 26.3125 292.083 26.8442 292.083 27.5Z" fill="#5A5A5A" stroke="#5A5A5A" stroke-width="1.5"/>
<path d="M292.083 33.4375C292.083 34.0933 291.551 34.625 290.896 34.625C290.24 34.625 289.708 34.0933 289.708 33.4375C289.708 32.7817 290.24 32.25 290.896 32.25C291.551 32.25 292.083 32.7817 292.083 33.4375Z" fill="#5A5A5A" stroke="#5A5A5A" stroke-width="1.5"/>
</svg>
