<svg width="318" height="174" viewBox="0 0 318 174" fill="none" xmlns="http://www.w3.org/2000/svg">
<rect width="318" height="174" fill="white"/>
<path d="M46.6989 100.21V99.3409L50.5341 93.2727H51.1648V94.6193H50.7386L47.8409 99.2045V99.2727H53.0057V100.21H46.6989ZM50.8068 102V99.946V99.5412V93.2727H51.8125V102H50.8068ZM54.364 95.8807V95.4205C54.364 95.017 54.4464 94.6591 54.6112 94.3466C54.7759 94.0341 55.0103 93.7884 55.3143 93.6094C55.6183 93.4304 55.9776 93.3409 56.3924 93.3409C57.0231 93.3409 57.5188 93.5369 57.8796 93.929C58.2404 94.3182 58.4208 94.8153 58.4208 95.4205V95.8807C58.4208 96.2841 58.3398 96.6406 58.1779 96.9503C58.016 97.2599 57.7844 97.5028 57.4833 97.679C57.1822 97.8551 56.8242 97.9432 56.4094 97.9432C55.7788 97.9432 55.2802 97.7514 54.9137 97.3679C54.5472 96.9815 54.364 96.4858 54.364 95.8807ZM55.3867 95.4205V95.8807C55.3867 96.2301 55.4719 96.5199 55.6424 96.75C55.8129 96.9773 56.0685 97.0909 56.4094 97.0909C56.7418 97.0909 56.989 96.9773 57.1509 96.75C57.3157 96.5199 57.3981 96.2301 57.3981 95.8807V95.4205C57.3981 95.0795 57.3157 94.7926 57.1509 94.5597C56.9862 94.3267 56.7333 94.2102 56.3924 94.2102C56.06 94.2102 55.8086 94.3267 55.6381 94.5597C55.4705 94.7926 55.3867 95.0795 55.3867 95.4205ZM66.4705 92.8636L63.658 103.312H62.7376L65.5501 92.8636H66.4705ZM74.0888 93.2727V102H73.032V94.3807H72.9808L70.8501 95.7955V94.7216L73.032 93.2727H74.0888ZM79.5476 102.119C78.9851 102.119 78.4837 102.023 78.0433 101.83C77.6058 101.636 77.2578 101.368 76.9993 101.024C76.7436 100.678 76.6044 100.276 76.5817 99.8182H77.6555C77.6783 100.099 77.7749 100.342 77.9453 100.547C78.1158 100.749 78.3388 100.905 78.6143 101.016C78.8899 101.126 79.1953 101.182 79.5305 101.182C79.9055 101.182 80.2379 101.116 80.5277 100.986C80.8175 100.855 81.0447 100.673 81.2095 100.44C81.3743 100.207 81.4567 99.9375 81.4567 99.6307C81.4567 99.3097 81.3771 99.027 81.218 98.7827C81.0589 98.5355 80.826 98.3423 80.5192 98.2031C80.2124 98.0639 79.8374 97.9943 79.3942 97.9943H78.6953V97.0568H79.3942C79.7408 97.0568 80.0447 96.9943 80.3061 96.8693C80.5703 96.7443 80.7763 96.5682 80.924 96.3409C81.0746 96.1136 81.1499 95.8466 81.1499 95.5398C81.1499 95.2443 81.0845 94.9872 80.9538 94.7685C80.8232 94.5497 80.6385 94.3793 80.3999 94.2571C80.1641 94.1349 79.8857 94.0739 79.5646 94.0739C79.2635 94.0739 78.9794 94.1293 78.7124 94.2401C78.4482 94.348 78.2322 94.5057 78.0646 94.7131C77.897 94.9176 77.8061 95.1648 77.7919 95.4545H76.7692C76.7862 94.9972 76.924 94.5966 77.1825 94.2528C77.4411 93.9062 77.7791 93.6364 78.1967 93.4432C78.6172 93.25 79.0788 93.1534 79.5817 93.1534C80.1214 93.1534 80.5845 93.2628 80.9709 93.4815C81.3572 93.6974 81.6541 93.983 81.8615 94.3381C82.0689 94.6932 82.1726 95.0767 82.1726 95.4886C82.1726 95.9801 82.0433 96.3991 81.7848 96.7457C81.5291 97.0923 81.1811 97.3324 80.7408 97.4659V97.5341C81.2919 97.625 81.7223 97.8594 82.032 98.2372C82.3416 98.6122 82.4964 99.0767 82.4964 99.6307C82.4964 100.105 82.3672 100.531 82.1087 100.909C81.853 101.284 81.5036 101.58 81.0604 101.795C80.6172 102.011 80.1129 102.119 79.5476 102.119ZM84.0007 95.8807V95.4205C84.0007 95.017 84.0831 94.6591 84.2479 94.3466C84.4126 94.0341 84.647 93.7884 84.951 93.6094C85.255 93.4304 85.6143 93.3409 86.0291 93.3409C86.6598 93.3409 87.1555 93.5369 87.5163 93.929C87.8771 94.3182 88.0575 94.8153 88.0575 95.4205V95.8807C88.0575 96.2841 87.9766 96.6406 87.8146 96.9503C87.6527 97.2599 87.4212 97.5028 87.12 97.679C86.8189 97.8551 86.4609 97.9432 86.0462 97.9432C85.4155 97.9432 84.9169 97.7514 84.5504 97.3679C84.1839 96.9815 84.0007 96.4858 84.0007 95.8807ZM85.0234 95.4205V95.8807C85.0234 96.2301 85.1087 96.5199 85.2791 96.75C85.4496 96.9773 85.7053 97.0909 86.0462 97.0909C86.3786 97.0909 86.6257 96.9773 86.7876 96.75C86.9524 96.5199 87.0348 96.2301 87.0348 95.8807V95.4205C87.0348 95.0795 86.9524 94.7926 86.7876 94.5597C86.6229 94.3267 86.37 94.2102 86.0291 94.2102C85.6967 94.2102 85.4453 94.3267 85.2749 94.5597C85.1072 94.7926 85.0234 95.0795 85.0234 95.4205ZM97.1176 96.372H99.1696V97.188H97.1176V96.372ZM94.9096 94.86H95.6776V95.424C95.6776 97.584 94.7776 99.768 93.1936 100.716L92.6056 99.96C94.0696 99.108 94.9096 97.2 94.9096 95.424V94.86ZM95.0896 94.86H95.8576V95.424C95.8576 97.152 96.7216 98.94 98.1856 99.732L97.6216 100.476C96.0256 99.588 95.0896 97.536 95.0896 95.424V94.86ZM92.9056 94.08H97.8616V94.908H92.9056V94.08ZM94.9096 92.472H95.8696V94.716H94.9096V92.472ZM100.946 92.088H101.906V102.936H100.946V92.088ZM98.7736 92.34H99.7096V102.384H98.7736V92.34ZM111.157 92.088H112.153V98.232H111.157V92.088ZM111.877 94.728H113.761V95.556H111.877V94.728ZM108.157 92.784H109.213C109.213 95.52 107.305 97.488 104.113 98.352L103.729 97.56C106.537 96.792 108.157 95.22 108.157 93.228V92.784ZM104.197 92.784H108.709V93.588H104.197V92.784ZM105.325 98.748H112.153V102.792H105.325V98.748ZM111.169 99.552H106.309V101.976H111.169V99.552ZM114.768 97.848H124.572V98.664H114.768V97.848ZM119.184 96.264H120.168V98.268H119.184V96.264ZM116.04 101.88H123.492V102.696H116.04V101.88ZM116.04 99.564H117.036V102.144H116.04V99.564ZM119.676 92.4C121.992 92.4 123.492 93.228 123.492 94.572C123.492 95.928 121.992 96.732 119.676 96.732C117.348 96.732 115.86 95.928 115.86 94.572C115.86 93.228 117.348 92.4 119.676 92.4ZM119.676 93.216C117.972 93.216 116.88 93.732 116.88 94.572C116.88 95.424 117.972 95.928 119.676 95.928C121.38 95.928 122.472 95.424 122.472 94.572C122.472 93.732 121.38 93.216 119.676 93.216ZM127.055 97.152H134.507V97.968H127.055V97.152ZM125.819 100.74H135.647V101.58H125.819V100.74ZM130.211 97.5H131.207V101.076H130.211V97.5ZM127.055 92.952H134.399V93.768H128.051V97.512H127.055V92.952ZM143.332 102.119C142.746 102.119 142.229 102.016 141.781 101.808C141.335 101.598 140.987 101.31 140.737 100.943C140.487 100.574 140.363 100.153 140.366 99.6818C140.363 99.3125 140.435 98.9716 140.583 98.6591C140.731 98.3437 140.933 98.081 141.188 97.8707C141.447 97.6577 141.735 97.5227 142.053 97.4659V97.4148C141.636 97.3068 141.303 97.0724 141.056 96.7116C140.809 96.348 140.687 95.9347 140.69 95.4716C140.687 95.0284 140.799 94.6321 141.026 94.2827C141.254 93.9332 141.566 93.6577 141.964 93.456C142.364 93.2543 142.82 93.1534 143.332 93.1534C143.837 93.1534 144.289 93.2543 144.687 93.456C145.085 93.6577 145.397 93.9332 145.624 94.2827C145.854 94.6321 145.971 95.0284 145.974 95.4716C145.971 95.9347 145.844 96.348 145.594 96.7116C145.347 97.0724 145.019 97.3068 144.61 97.4148V97.4659C144.925 97.5227 145.21 97.6577 145.462 97.8707C145.715 98.081 145.917 98.3437 146.067 98.6591C146.218 98.9716 146.295 99.3125 146.298 99.6818C146.295 100.153 146.167 100.574 145.914 100.943C145.664 101.31 145.316 101.598 144.87 101.808C144.427 102.016 143.914 102.119 143.332 102.119ZM143.332 101.182C143.727 101.182 144.067 101.118 144.354 100.99C144.641 100.862 144.863 100.682 145.019 100.449C145.175 100.216 145.255 99.9432 145.258 99.6307C145.255 99.3011 145.17 99.0099 145.002 98.7571C144.835 98.5043 144.606 98.3054 144.316 98.1605C144.029 98.0156 143.701 97.9432 143.332 97.9432C142.96 97.9432 142.627 98.0156 142.335 98.1605C142.045 98.3054 141.816 98.5043 141.648 98.7571C141.484 99.0099 141.403 99.3011 141.406 99.6307C141.403 99.9432 141.478 100.216 141.631 100.449C141.788 100.682 142.011 100.862 142.3 100.99C142.59 101.118 142.934 101.182 143.332 101.182ZM143.332 97.0398C143.644 97.0398 143.921 96.9773 144.163 96.8523C144.407 96.7273 144.599 96.5526 144.738 96.3281C144.877 96.1037 144.948 95.8409 144.951 95.5398C144.948 95.2443 144.879 94.9872 144.742 94.7685C144.606 94.5469 144.417 94.3764 144.175 94.2571C143.934 94.1349 143.653 94.0739 143.332 94.0739C143.005 94.0739 142.719 94.1349 142.475 94.2571C142.231 94.3764 142.042 94.5469 141.908 94.7685C141.775 94.9872 141.71 95.2443 141.712 95.5398C141.71 95.8409 141.776 96.1037 141.913 96.3281C142.052 96.5526 142.244 96.7273 142.488 96.8523C142.732 96.9773 143.013 97.0398 143.332 97.0398ZM147.692 95.8807V95.4205C147.692 95.017 147.775 94.6591 147.939 94.3466C148.104 94.0341 148.338 93.7884 148.642 93.6094C148.946 93.4304 149.306 93.3409 149.721 93.3409C150.351 93.3409 150.847 93.5369 151.208 93.929C151.569 94.3182 151.749 94.8153 151.749 95.4205V95.8807C151.749 96.2841 151.668 96.6406 151.506 96.9503C151.344 97.2599 151.113 97.5028 150.811 97.679C150.51 97.8551 150.152 97.9432 149.738 97.9432C149.107 97.9432 148.608 97.7514 148.242 97.3679C147.875 96.9815 147.692 96.4858 147.692 95.8807ZM148.715 95.4205V95.8807C148.715 96.2301 148.8 96.5199 148.971 96.75C149.141 96.9773 149.397 97.0909 149.738 97.0909C150.07 97.0909 150.317 96.9773 150.479 96.75C150.644 96.5199 150.726 96.2301 150.726 95.8807V95.4205C150.726 95.0795 150.644 94.7926 150.479 94.5597C150.314 94.3267 150.061 94.2102 149.721 94.2102C149.388 94.2102 149.137 94.3267 148.966 94.5597C148.799 94.7926 148.715 95.0795 148.715 95.4205Z" fill="#5A5A5A"/>
<path d="M54.844 117.088H55.804V127.936H54.844V117.088ZM53.008 121.432H55.096V122.26H53.008V121.432ZM52.384 117.328H53.32V127.384H52.384V117.328ZM46.984 124.432H47.692C49.276 124.432 50.356 124.372 51.616 124.108L51.712 124.936C50.416 125.212 49.324 125.26 47.692 125.26H46.984V124.432ZM46.984 118.408H51.016V119.224H47.968V124.804H46.984V118.408ZM58.8631 117.796H65.6431V118.6H58.8631V117.796ZM57.6391 122.452H67.4431V123.268H57.6391V122.452ZM62.0191 122.992H63.0151V127.948H62.0191V122.992ZM65.1751 117.796H66.1471V118.732C66.1471 119.86 66.1471 121.132 65.7391 122.968L64.7551 122.836C65.1751 121.084 65.1751 119.824 65.1751 118.732V117.796ZM76.4331 117.472H77.3091V118.072C77.3091 120.148 75.1971 121.636 72.9411 122.02L72.5451 121.216C74.5251 120.916 76.4331 119.62 76.4331 118.072V117.472ZM76.6131 117.472H77.4771V118.072C77.4771 119.584 79.4091 120.916 81.3651 121.216L80.9691 122.02C78.7371 121.636 76.6131 120.124 76.6131 118.072V117.472ZM76.4331 123.808H77.4171V127.936H76.4331V123.808ZM72.0531 123.196H81.8571V124.024H72.0531V123.196ZM85.8162 117.7H86.6442V118.816C86.6442 120.916 85.4562 122.632 83.5962 123.328L83.0802 122.512C84.7362 121.924 85.8162 120.472 85.8162 118.816V117.7ZM85.9962 117.7H86.8122V118.78C86.8122 120.316 87.8682 121.672 89.4522 122.224L88.9122 123.004C87.1602 122.344 85.9962 120.748 85.9962 118.78V117.7ZM91.0122 117.088H92.0082V123.508H91.0122V117.088ZM88.4442 123.82C90.6762 123.82 92.0562 124.576 92.0562 125.872C92.0562 127.168 90.6762 127.912 88.4442 127.912C86.2002 127.912 84.8202 127.168 84.8202 125.872C84.8202 124.576 86.2002 123.82 88.4442 123.82ZM88.4442 124.612C86.8122 124.612 85.8162 125.08 85.8162 125.872C85.8162 126.664 86.8122 127.132 88.4442 127.132C90.0762 127.132 91.0722 126.664 91.0722 125.872C91.0722 125.08 90.0762 124.612 88.4442 124.612ZM88.6602 119.38H91.2282V120.208H88.6602V119.38ZM95.3553 117.796H102.135V118.6H95.3553V117.796ZM94.1313 122.452H103.935V123.268H94.1313V122.452ZM98.5113 122.992H99.5073V127.948H98.5113V122.992ZM101.667 117.796H102.639V118.732C102.639 119.86 102.639 121.132 102.231 122.968L101.247 122.836C101.667 121.084 101.667 119.824 101.667 118.732V117.796ZM106.991 125.807L106.923 126.267C106.874 126.591 106.8 126.938 106.701 127.307C106.604 127.676 106.504 128.024 106.398 128.351C106.293 128.678 106.207 128.938 106.138 129.131H105.371C105.408 128.949 105.457 128.709 105.516 128.411C105.576 128.112 105.636 127.778 105.695 127.409C105.758 127.043 105.809 126.668 105.849 126.284L105.9 125.807H106.991ZM120.153 117.088H121.113V127.936H120.153V117.088ZM118.317 121.432H120.405V122.26H118.317V121.432ZM117.693 117.328H118.629V127.384H117.693V117.328ZM112.293 124.432H113.001C114.585 124.432 115.665 124.372 116.925 124.108L117.021 124.936C115.725 125.212 114.633 125.26 113.001 125.26H112.293V124.432ZM112.293 118.408H116.325V119.224H113.277V124.804H112.293V118.408ZM130.364 117.1H131.36V125.236H130.364V117.1ZM131.048 120.652H132.968V121.492H131.048V120.652ZM122.972 118.408H129.38V119.212H122.972V118.408ZM126.176 119.812C127.712 119.812 128.768 120.616 128.768 121.84C128.768 123.052 127.712 123.856 126.176 123.856C124.628 123.856 123.572 123.052 123.572 121.84C123.572 120.616 124.628 119.812 126.176 119.812ZM126.176 120.592C125.192 120.592 124.52 121.084 124.52 121.84C124.52 122.584 125.192 123.076 126.176 123.076C127.148 123.076 127.82 122.584 127.82 121.84C127.82 121.084 127.148 120.592 126.176 120.592ZM125.672 117.088H126.668V118.828H125.672V117.088ZM124.604 126.88H131.852V127.696H124.604V126.88ZM124.604 124.588H125.6V127.228H124.604V124.588ZM134.551 118.024H139.603V123.076H134.551V118.024ZM138.643 118.828H135.511V122.272H138.643V118.828ZM141.871 117.1H142.879V124.888H141.871V117.1ZM135.907 126.76H143.203V127.588H135.907V126.76ZM135.907 124.144H136.891V127.096H135.907V124.144ZM146.274 117.592H153.258V118.408H146.274V117.592ZM145.026 121.48H154.854V122.296H145.026V121.48ZM149.43 122.032H150.414V124.588H149.43V122.032ZM152.61 117.592H153.582V118.396C153.582 119.296 153.582 120.388 153.222 121.876L152.25 121.756C152.61 120.304 152.61 119.272 152.61 118.396V117.592ZM146.046 124.264H153.654V127.936H152.658V125.08H146.046V124.264Z" fill="#5A5A5A"/>
<path d="M54.5099 48.6364V69H50.2045V52.723H50.0852L45.4219 55.6463V51.8281L50.4631 48.6364H54.5099ZM59.3498 69V65.8977L66.5984 59.1861C67.2148 58.5895 67.7319 58.0526 68.1495 57.5753C68.5737 57.098 68.8952 56.6307 69.114 56.1733C69.3327 55.7093 69.4421 55.2088 69.4421 54.6719C69.4421 54.0753 69.3062 53.5616 69.0344 53.1307C68.7627 52.6932 68.3915 52.3584 67.9208 52.1264C67.4502 51.8878 66.9165 51.7685 66.32 51.7685C65.6969 51.7685 65.1533 51.8944 64.6893 52.1463C64.2253 52.3982 63.8673 52.7595 63.6154 53.2301C63.3635 53.7008 63.2376 54.2609 63.2376 54.9105H59.1509C59.1509 53.5781 59.4525 52.4214 60.0558 51.4403C60.659 50.4593 61.5041 49.7003 62.5913 49.1634C63.6784 48.6264 64.9312 48.358 66.3498 48.358C67.8081 48.358 69.0775 48.6165 70.158 49.1335C71.2451 49.6439 72.0903 50.3532 72.6935 51.2614C73.2968 52.1695 73.5984 53.2102 73.5984 54.3835C73.5984 55.1525 73.4459 55.9115 73.141 56.6605C72.8427 57.4096 72.3091 58.2415 71.5401 59.1562C70.7712 60.0644 69.6874 61.1548 68.2887 62.4276L65.3157 65.3409V65.4801H73.8668V69H59.3498ZM77.245 54.7216V53.6676C77.245 52.7197 77.4439 51.8812 77.8416 51.152C78.2393 50.4162 78.8028 49.8395 79.532 49.4219C80.2678 49.0043 81.1295 48.7955 82.1172 48.7955C83.6286 48.7955 84.8184 49.2528 85.6868 50.1676C86.5618 51.0824 86.9993 52.2491 86.9993 53.6676V54.7216C86.9993 55.6629 86.8037 56.4981 86.4126 57.2273C86.0215 57.9498 85.4647 58.5199 84.7422 58.9375C84.0196 59.3485 83.1579 59.554 82.157 59.554C80.639 59.554 79.4392 59.1032 78.5575 58.2017C77.6825 57.2936 77.245 56.1335 77.245 54.7216ZM79.701 53.6676V54.7216C79.701 55.5369 79.9065 56.2131 80.3175 56.75C80.7285 57.2803 81.3416 57.5455 82.157 57.5455C82.959 57.5455 83.5556 57.2803 83.9467 56.75C84.3445 56.2131 84.5433 55.5369 84.5433 54.7216V53.6676C84.5433 52.8722 84.3445 52.1993 83.9467 51.6491C83.549 51.099 82.9392 50.8239 82.1172 50.8239C81.3217 50.8239 80.7185 51.099 80.3075 51.6491C79.9032 52.1993 79.701 52.8722 79.701 53.6676Z" fill="#A50034"/>
<path d="M192 96.8711C192 99.6218 192.672 102.159 194.017 104.481C195.362 106.804 197.196 108.638 199.519 109.983C201.841 111.328 204.348 112 207.068 112H240.168C242.888 112 245.425 111.328 247.748 109.983C250.071 108.638 251.935 106.804 253.28 104.481C254.625 102.159 255.328 99.6218 255.328 96.8711C255.328 94.8539 254.9 92.8061 254.044 90.7584C256.367 87.9465 257.528 84.554 257.528 80.6724C257.528 78.5024 257.1 76.4241 256.275 74.4374C255.45 72.4508 254.288 70.7698 252.852 69.3333C251.415 67.8968 249.734 66.7354 247.748 65.9102C245.761 65.0544 243.683 64.6571 241.513 64.6571C236.989 64.6571 233.047 66.4298 229.654 69.9752C227.301 68.6304 224.55 67.958 221.402 67.958C217.093 67.958 213.303 69.3028 210.002 71.9618C206.701 74.6208 204.562 78.0439 203.645 82.2006C200.222 82.9952 197.44 84.7373 195.27 87.4881C193.1 90.2388 192 93.3563 192 96.8711ZM197.226 96.8711C197.226 94.3037 198.082 92.1032 199.794 90.2388C201.505 88.3744 203.645 87.3047 206.212 86.999L207.74 86.9074C208.107 86.9074 208.321 86.724 208.321 86.3572L208.535 84.7068C208.963 81.4059 210.399 78.6246 212.844 76.4241C215.289 74.1929 218.162 73.0926 221.433 73.0926C224.795 73.0926 227.729 74.2235 230.204 76.4546C232.711 78.6858 234.086 81.4365 234.392 84.7373L234.606 86.51C234.667 86.8462 234.881 87.0296 235.247 87.0296H240.168C242.858 87.0296 245.181 88.0076 247.137 89.9637C249.093 91.9198 250.071 94.212 250.071 96.9016C250.071 99.6829 249.093 102.036 247.167 103.992C245.242 105.948 242.888 106.926 240.199 106.926H207.068C204.378 106.926 202.086 105.948 200.13 103.962C198.204 101.975 197.226 99.6218 197.226 96.8711ZM217.704 59.3696C217.704 60.1032 217.948 60.745 218.437 61.2951L220.455 63.2512C221.219 63.8319 221.861 64.0764 222.411 64.0153C223.053 64.0153 223.603 63.7402 224.092 63.2206C224.581 62.701 224.825 62.0592 224.825 61.3257C224.825 60.5922 224.55 59.9809 224.031 59.5224L222.227 57.5053C221.677 57.0162 221.066 56.7717 220.363 56.7717C219.629 56.7717 218.988 57.0162 218.468 57.5358C217.948 58.0248 217.704 58.6361 217.704 59.3696ZM234.025 72.9093C236.134 70.8615 238.64 69.8529 241.513 69.8529C244.539 69.8529 247.106 70.8921 249.215 73.001C251.324 75.1098 252.394 77.6466 252.394 80.6724C252.394 82.5673 251.874 84.4623 250.835 86.2961C247.87 83.362 244.325 81.8949 240.168 81.8949H239.19C238.426 78.5635 236.714 75.5683 234.025 72.9093ZM239.007 56.7717C239.007 57.5664 239.251 58.1777 239.71 58.6667C240.168 59.1557 240.779 59.3696 241.513 59.3696C242.308 59.3696 242.919 59.1251 243.408 58.6667C243.897 58.1777 244.111 57.5664 244.111 56.7717V50.5062C244.111 49.7727 243.866 49.192 243.377 48.703C242.888 48.2139 242.277 48 241.513 48C240.779 48 240.199 48.2445 239.71 48.703C239.221 49.1614 239.007 49.7727 239.007 50.5062V56.7717ZM255.878 63.7708C255.878 64.5654 256.092 65.1767 256.55 65.6657C257.192 66.1547 257.834 66.3992 258.445 66.3992C258.995 66.3992 259.606 66.1547 260.248 65.6657L264.619 61.2951C265.108 60.745 265.352 60.1032 265.352 59.3391C265.352 58.6055 265.108 57.9943 264.619 57.5053C264.13 57.0162 263.519 56.7717 262.816 56.7717C262.082 56.7717 261.501 57.0162 261.043 57.5053L256.55 61.8758C256.092 62.4565 255.878 63.0678 255.878 63.7708ZM258.292 99.958C258.292 100.692 258.537 101.333 259.056 101.883L261.043 103.809C261.501 104.298 262.082 104.543 262.816 104.543C263.549 104.543 264.16 104.298 264.649 103.778C265.138 103.259 265.383 102.648 265.383 101.883C265.383 101.211 265.138 100.6 264.649 100.111L262.663 98.1242C262.174 97.6351 261.593 97.3906 260.921 97.3906C260.187 97.3906 259.576 97.6351 259.087 98.1242C258.567 98.6132 258.292 99.2245 258.292 99.958ZM262.785 80.6724C262.785 81.3754 263.06 81.9561 263.58 82.4451C264.069 82.9341 264.711 83.1786 265.444 83.1786H271.679C272.382 83.1786 272.963 82.9341 273.452 82.4756C273.941 82.0172 274.155 81.4059 274.155 80.6724C274.155 79.9389 273.91 79.3276 273.452 78.8386C272.993 78.3496 272.382 78.0745 271.679 78.0745H265.444C264.711 78.0745 264.099 78.319 263.58 78.8386C263.03 79.3582 262.785 79.9694 262.785 80.6724Z" fill="#5A5A5A"/>
</svg>
